# xmcd
#
# Track frame offsets:
#	150
#	22148
#	43596
#	59580
#	77909
#	91063
#	105318
#	121199
#	137632
#	157703
#	178951
#	200440
#
# Disc length: 2963 seconds
#
# Revision: 1
# Processed by: cddbd v1.5.1PL0 Copyright (c) Steve Scherf et al.
# Submitted via: audiograbber 1.83.01
#
DISCID=980b910c
DTITLE=Ippolito (David) - Common Ground
DYEAR=2004
DGENRE=Country
TTITLE0=Tired of being lied to
TTITLE1=Where'dat money go
TTITLE2=Did you fall in love again
TTITLE3=A lot of lonely people
TTITLE4=My morning coffee
TTITLE5=He's just mean
TTITLE6=Talk louder
TTITLE7=Where's the voice
TTITLE8=Relax, it's only life
TTITLE9=A much better view of the moon
TTITLE10=Never been to Spain
TTITLE11=Common ground
EXTD=
EXTT0=
EXTT1=
EXTT2=
EXTT3=
EXTT4=
EXTT5=
EXTT6=
EXTT7=
EXTT8=
EXTT9=
EXTT10=
EXTT11=
PLAYORDER=
